<svg width="1224" height="240" viewBox="0 0 1224 240" fill="none" xmlns="http://www.w3.org/2000/svg">
<mask id="mask0_612_1588" style="mask-type:luminance" maskUnits="userSpaceOnUse" x="0" y="0" width="1224" height="240">
<path d="M1224 0H0V240H1224V0Z" fill="white"/>
</mask>
<g mask="url(#mask0_612_1588)">
<path d="M425.851 -325H435V62.0476C435 81.3726 419.268 97.0952 399.931 97.0952H155.97C141.677 97.0952 130.049 108.716 130.049 123C130.049 137.284 141.677 148.905 155.97 148.905H247.455C266.792 148.905 282.525 164.627 282.525 183.952C282.525 203.277 266.792 219 247.455 219H-27V209.857H247.455C261.748 209.857 273.376 198.237 273.376 183.952C273.376 169.668 261.748 158.048 247.455 158.048H155.97C136.633 158.048 120.901 142.325 120.901 123C120.901 103.675 136.633 87.9524 155.97 87.9524H399.931C414.224 87.9524 425.851 76.3318 425.851 62.0476V-325Z" stroke="#0057D9" stroke-width="2" stroke-miterlimit="10" stroke-dasharray="2 8"/>
<path d="M1243.46 203C1262.79 203 1278.52 187.277 1278.52 167.952C1278.52 148.627 1262.79 132.905 1243.46 132.905H1081.97C1067.68 132.905 1056.05 121.284 1056.05 107C1056.05 92.7158 1067.68 81.0952 1081.97 81.0952H1395.93C1415.27 81.0952 1431 65.3726 1431 46.0476V-283H1421.85V46.0476C1421.85 60.3318 1410.22 71.9524 1395.93 71.9524H1081.97C1062.63 71.9524 1046.9 87.675 1046.9 107C1046.9 126.325 1062.63 142.048 1081.97 142.048H1243.46C1257.75 142.048 1269.38 153.668 1269.38 167.952C1269.38 182.237 1257.75 193.857 1243.46 193.857" stroke="#0057D9" stroke-width="2" stroke-miterlimit="10" stroke-dasharray="2 8"/>
<path d="M1244 208H1036.1C1009 208.946 995.327 195.5 995.327 171.8V103.6C995.327 80.8452 977.071 62.3996 954.551 62.3996L850.999 62.4C820.499 62.4 810.223 48.9999 810.223 26.2457V-20.0001" stroke="#0057D9" stroke-width="2" stroke-miterlimit="10" stroke-dasharray="2 8"/>
<path d="M1231.78 220H1023.88C1001.36 220 983.104 201.554 983.104 178.8V110.254C983.104 87.4999 974.501 74.3996 942.328 74.3996L838.776 74.4C816.256 74.4 798 55.9542 798 33.1999V-21.0001" stroke="#0057D9" stroke-width="2" stroke-miterlimit="10" stroke-dasharray="2 8"/>
<path opacity="0.25" d="M954.154 127.49C954.154 123.29 948.932 109.191 945.659 100.768C944.743 98.4107 941.411 98.4107 940.495 100.768C937.222 109.191 932 123.29 932 127.49C932 133.608 936.96 138.567 943.077 138.567C949.194 138.567 954.154 133.608 954.154 127.49Z" fill="#0057D9"/>
<path opacity="0.3" d="M943.076 147V129.277" stroke="#0057D9" stroke-width="3" stroke-miterlimit="10"/>
<path d="M496 27.6497H528" stroke="#0057D9" stroke-width="2" stroke-miterlimit="10" stroke-dasharray="2 6"/>
<path d="M687 19.7468H719" stroke="#0057D9" stroke-width="2" stroke-miterlimit="10" stroke-dasharray="2 6"/>
<path d="M68.7678 202.474C62.4107 208.832 62.4107 219.139 68.7678 225.497M90.7676 225.497C97.1246 219.139 97.1246 208.832 90.7676 202.474M86.7676 214.497C86.7676 210.631 83.6333 207.497 79.7676 207.497C75.9018 207.497 72.7676 210.631 72.7676 214.497C72.7676 218.363 75.9018 221.497 79.7676 221.497C83.6333 221.497 86.7676 218.363 86.7676 214.497Z" stroke="#0057D9" stroke-width="2" stroke-miterlimit="10"/>
<path d="M80.0001 178C73.3714 178 68 183.356 68 189.966C68 192.549 68.8381 195.512 70.2476 197.487L80 212.187L89.7524 197.487C91.1619 195.511 92 192.587 92 189.966C92 183.356 86.6289 178 80.0001 178ZM80.0001 194.524C77.4857 194.524 75.4287 192.473 75.4287 189.966C75.4287 187.459 77.4857 185.407 80.0001 185.407C82.5144 185.407 84.5715 187.459 84.5715 189.966C84.5715 192.473 82.5144 194.524 80.0001 194.524Z" fill="#0057D9"/>
<mask id="mask1_612_1588" style="mask-type:luminance" maskUnits="userSpaceOnUse" x="65" y="175" width="30" height="43">
<path d="M95 175H65V218H95V175Z" fill="white"/>
<path d="M80.0001 178C73.3714 178 68 183.356 68 189.966C68 192.549 68.8381 195.512 70.2476 197.487L80 212.187L89.7524 197.487C91.1619 195.511 92 192.587 92 189.966C92 183.356 86.6289 178 80.0001 178ZM80.0001 194.524C77.4857 194.524 75.4287 192.473 75.4287 189.966C75.4287 187.459 77.4857 185.407 80.0001 185.407C82.5144 185.407 84.5715 187.459 84.5715 189.966C84.5715 192.473 82.5144 194.524 80.0001 194.524Z" fill="black"/>
</mask>
<g mask="url(#mask1_612_1588)">
<path d="M70.2476 197.487L72.7475 195.828L72.7192 195.786L72.6896 195.744L70.2476 197.487ZM80 212.187L77.5001 213.846L80 217.614L82.4999 213.846L80 212.187ZM89.7524 197.487L87.3104 195.744L87.2807 195.786L87.2525 195.828L89.7524 197.487ZM80.0001 175C71.7227 175 65 181.691 65 189.966H71C71 185.021 75.0201 181 80.0001 181V175ZM65 189.966C65 193.07 65.9776 196.668 67.8056 199.229L72.6896 195.744C71.6986 194.356 71 192.027 71 189.966H65ZM67.7477 199.145L77.5001 213.846L82.4999 210.529L72.7475 195.828L67.7477 199.145ZM82.4999 213.846L92.2523 199.145L87.2525 195.828L77.5001 210.529L82.4999 213.846ZM92.1945 199.229C94.0201 196.671 95 193.113 95 189.966H89C89 192.061 88.3037 194.352 87.3104 195.744L92.1945 199.229ZM95 189.966C95 181.691 88.2777 175 80.0001 175V181C84.9802 181 89 185.021 89 189.966H95ZM80.0001 191.524C79.1344 191.524 78.4287 190.808 78.4287 189.966H72.4287C72.4287 194.138 75.837 197.524 80.0001 197.524V191.524ZM78.4287 189.966C78.4287 189.124 79.1344 188.407 80.0001 188.407V182.407C75.837 182.407 72.4287 185.794 72.4287 189.966H78.4287ZM80.0001 188.407C80.8657 188.407 81.5715 189.124 81.5715 189.966H87.5715C87.5715 185.794 84.1631 182.407 80.0001 182.407V188.407ZM81.5715 189.966C81.5715 190.808 80.8656 191.524 80.0001 191.524V197.524C84.1633 197.524 87.5715 194.137 87.5715 189.966H81.5715Z" fill="white"/>
</g>
<path d="M189.633 203.537C189.881 202.699 190.01 201.81 189.999 200.888C189.94 196.154 186.064 192.176 181.332 192.006C176.21 191.822 172 195.919 172 201C172 201.903 172.134 202.773 172.383 203.594C172.929 205.395 172.49 207.353 171.366 208.862C169.793 210.972 168.898 213.614 169.009 216.475C169.246 222.617 174.268 227.691 180.408 227.986C187.304 228.317 192.999 222.824 192.999 216C192.999 213.362 192.144 210.927 190.698 208.949C189.557 207.389 189.084 205.391 189.633 203.537Z" fill="#C6D8F1"/>
<path d="M189.633 203.537C189.881 202.699 190.01 201.81 189.999 200.888C189.94 196.154 186.064 192.176 181.332 192.006C176.21 191.822 172 195.919 172 201C172 201.903 172.134 202.773 172.383 203.594C172.929 205.395 172.49 207.353 171.366 208.862C169.793 210.972 168.898 213.614 169.009 216.475C169.246 222.617 174.268 227.691 180.408 227.986C187.304 228.317 192.999 222.824 192.999 216C192.999 213.362 192.144 210.927 190.698 208.949C189.557 207.389 189.084 205.391 189.633 203.537Z" fill="white" fill-opacity="0.25"/>
<path opacity="0.3" d="M181 240V216V228" stroke="#0057D9" stroke-width="3" stroke-miterlimit="10"/>
<path d="M1126.77 64.9773C1120.41 71.3353 1120.41 81.6421 1126.77 88.0001M1148.77 88.0001C1155.12 81.642 1155.12 71.3353 1148.77 64.9773M1144.77 77.0001C1144.77 73.1343 1141.63 70.0001 1137.77 70.0001C1133.9 70.0001 1130.77 73.1343 1130.77 77.0001C1130.77 80.8658 1133.9 84.0001 1137.77 84.0001C1141.63 84.0001 1144.77 80.8658 1144.77 77.0001Z" stroke="#0057D9" stroke-width="2" stroke-miterlimit="10"/>
<path d="M1138 41C1131.37 41 1126 46.3561 1126 52.9656C1126 55.5485 1126.84 58.5117 1128.25 60.4868L1138 75.1874L1147.75 60.4868C1149.16 58.5115 1150 55.5868 1150 52.9656C1150 46.356 1144.63 41 1138 41ZM1138 57.5239C1135.49 57.5239 1133.43 55.4728 1133.43 52.9657C1133.43 50.4585 1135.49 48.4074 1138 48.4074C1140.51 48.4074 1142.57 50.4585 1142.57 52.9657C1142.57 55.4725 1140.51 57.5239 1138 57.5239Z" fill="#0057D9"/>
<mask id="mask2_612_1588" style="mask-type:luminance" maskUnits="userSpaceOnUse" x="1123" y="38" width="30" height="43">
<path d="M1153 38H1123V81H1153V38Z" fill="white"/>
<path d="M1138 41C1131.37 41 1126 46.3561 1126 52.9656C1126 55.5485 1126.84 58.5117 1128.25 60.4868L1138 75.1874L1147.75 60.4868C1149.16 58.5115 1150 55.5868 1150 52.9656C1150 46.356 1144.63 41 1138 41ZM1138 57.5239C1135.49 57.5239 1133.43 55.4728 1133.43 52.9657C1133.43 50.4585 1135.49 48.4074 1138 48.4074C1140.51 48.4074 1142.57 50.4585 1142.57 52.9657C1142.57 55.4725 1140.51 57.5239 1138 57.5239Z" fill="black"/>
</mask>
<g mask="url(#mask2_612_1588)">
<path d="M1128.25 60.4868L1130.75 58.8284L1130.72 58.7858L1130.69 58.7442L1128.25 60.4868ZM1138 75.1874L1135.5 76.8459L1138 80.6142L1140.5 76.8459L1138 75.1874ZM1147.75 60.4868L1145.31 58.7443L1145.28 58.7859L1145.25 58.8284L1147.75 60.4868ZM1138 38C1129.72 38 1123 44.6911 1123 52.9656H1129C1129 48.0211 1133.02 44 1138 44V38ZM1123 52.9656C1123 56.0702 1123.98 59.6678 1125.81 62.2294L1130.69 58.7442C1129.7 57.3556 1129 55.0268 1129 52.9656H1123ZM1125.75 62.1453L1135.5 76.8459L1140.5 73.529L1130.75 58.8284L1125.75 62.1453ZM1140.5 76.8459L1150.25 62.1453L1145.25 58.8284L1135.5 73.529L1140.5 76.8459ZM1150.19 62.2293C1152.02 59.6707 1153 56.113 1153 52.9656H1147C1147 55.0605 1146.3 57.3523 1145.31 58.7443L1150.19 62.2293ZM1153 52.9656C1153 44.691 1146.28 38 1138 38V44C1142.98 44 1147 48.0209 1147 52.9656H1153ZM1138 54.5239C1137.13 54.5239 1136.43 53.8078 1136.43 52.9657H1130.43C1130.43 57.1378 1133.84 60.5239 1138 60.5239V54.5239ZM1136.43 52.9657C1136.43 52.1235 1137.13 51.4074 1138 51.4074V45.4074C1133.84 45.4074 1130.43 48.7935 1130.43 52.9657H1136.43ZM1138 51.4074C1138.87 51.4074 1139.57 52.1235 1139.57 52.9657H1145.57C1145.57 48.7935 1142.16 45.4074 1138 45.4074V51.4074ZM1139.57 52.9657C1139.57 53.8077 1138.87 54.5239 1138 54.5239V60.5239C1142.16 60.5239 1145.57 57.1374 1145.57 52.9657H1139.57Z" fill="white"/>
</g>
<path d="M329.633 84.5373C329.881 83.6988 330.01 82.8101 329.999 81.8883C329.94 77.1536 326.064 73.1763 321.332 73.0061C316.21 72.8216 312 76.9188 312 82.0001C312 82.9031 312.134 83.7731 312.383 84.5936C312.929 86.3951 312.49 88.3526 311.366 89.8616C309.793 91.9721 308.898 94.6143 309.009 97.4747C309.246 103.617 314.268 108.691 320.408 108.986C327.304 109.317 332.999 103.824 332.999 97.0001C332.999 94.3616 332.144 91.9271 330.698 89.9486C329.557 88.3886 329.084 86.3906 329.633 84.5373Z" fill="#C6D8F1"/>
<path d="M329.633 84.5373C329.881 83.6988 330.01 82.8101 329.999 81.8883C329.94 77.1536 326.064 73.1763 321.332 73.0061C316.21 72.8216 312 76.9188 312 82.0001C312 82.9031 312.134 83.7731 312.383 84.5936C312.929 86.3951 312.49 88.3526 311.366 89.8616C309.793 91.9721 308.898 94.6143 309.009 97.4747C309.246 103.617 314.268 108.691 320.408 108.986C327.304 109.317 332.999 103.824 332.999 97.0001C332.999 94.3616 332.144 91.9271 330.698 89.9486C329.557 88.3886 329.084 86.3906 329.633 84.5373Z" fill="white" fill-opacity="0.25"/>
<path opacity="0.3" d="M321 121V97V109" stroke="#0057D9" stroke-width="3" stroke-miterlimit="10"/>
<path d="M1117.63 203.537C1117.88 202.699 1118.01 201.81 1118 200.888C1117.94 196.154 1114.06 192.176 1109.33 192.006C1104.21 191.822 1100 195.919 1100 201C1100 201.903 1100.13 202.773 1100.38 203.594C1100.93 205.395 1100.49 207.353 1099.37 208.862C1097.79 210.972 1096.9 213.614 1097.01 216.475C1097.25 222.617 1102.27 227.691 1108.41 227.986C1115.3 228.317 1121 222.824 1121 216C1121 213.362 1120.14 210.927 1118.7 208.949C1117.56 207.389 1117.08 205.391 1117.63 203.537Z" fill="#C6D8F1"/>
<path d="M1117.63 203.537C1117.88 202.699 1118.01 201.81 1118 200.888C1117.94 196.154 1114.06 192.176 1109.33 192.006C1104.21 191.822 1100 195.919 1100 201C1100 201.903 1100.13 202.773 1100.38 203.594C1100.93 205.395 1100.49 207.353 1099.37 208.862C1097.79 210.972 1096.9 213.614 1097.01 216.475C1097.25 222.617 1102.27 227.691 1108.41 227.986C1115.3 228.317 1121 222.824 1121 216C1121 213.362 1120.14 210.927 1118.7 208.949C1117.56 207.389 1117.08 205.391 1117.63 203.537Z" fill="white" fill-opacity="0.25"/>
<path opacity="0.3" d="M1109 240V216V228" stroke="#0057D9" stroke-width="3" stroke-miterlimit="10"/>
</g>
</svg>
